<?xml version="1.0" encoding="utf-8"?>
<!-- Generator: Adobe Illustrator 25.4.1, SVG Export Plug-In . SVG Version: 6.00 Build 0)  -->
<svg version="1.0" id="katman_1" xmlns="http://www.w3.org/2000/svg" xmlns:xlink="http://www.w3.org/1999/xlink" x="0px" y="0px"
	 viewBox="0 0 1700 1200" style="enable-background:new 0 0 1700 1200;" xml:space="preserve">
<style type="text/css">
	.st0{fill-rule:evenodd;clip-rule:evenodd;fill:#32323D;}
	.st1{fill-rule:evenodd;clip-rule:evenodd;fill:#3373A1;}
</style>
<path class="st0" d="M177.7,728.7c-1.3,2.2-4,2.9-6.2,1.7c-0.7-0.4-1.3-1-1.7-1.7L148.7,692c-2.2-3.7-2.2-8.3,0-12.1l97.2-170.5
	c1.2-2.2,4-2.9,6.2-1.7c0.7,0.4,1.3,1,1.7,1.7l4.9,8.5c3.2,5.6,3.2,12.5,0,18l-82,143.8c-2.1,3.7-2.1,8.3,0,12.1l5.9,10.2
	c3.3,5.6,3.3,12.6,0,18.2L177.7,728.7L177.7,728.7z"/>
<path class="st0" d="M241.7,617.1c-3.3,5.6-3.4,12.5-0.2,18.2l25.2,44.5c2.1,3.7,2.1,8.3,0,12l-17.3,30c-2.2,3.7-6.2,6.1-10.5,6.1
	h-17.2c-7,0-13.1,4.1-16.5,10.5l-4.1,7.3c-1.1,2.3-0.1,5,2.2,6c0.6,0.3,1.3,0.4,1.9,0.4h47.6c4.3,0,8.3-2.3,10.5-6.1l31.3-54.7
	c2.2-3.7,2.2-8.3,0-12l-40.3-70.5c-1.2-2.2-4-3-6.2-1.7c-0.7,0.4-1.3,1-1.7,1.7L241.7,617.1L241.7,617.1z"/>
<path class="st0" d="M305.5,752.2c6.5,0,12.5-3.5,15.8-9.1l29.4-51.2c2.2-3.7,2.2-8.4,0-12.1l-68.4-120.2c-1.2-2.2-4-2.9-6.2-1.7
	c-0.7,0.4-1.3,1-1.7,1.7l-4.9,8.6c-3.2,5.6-3.2,12.5,0,18.1l53.3,93.5c2.1,3.7,2.1,8.3,0,12.1l-29.4,51.3c-1.7,2.9-0.7,6.6,2.2,8.3
	c0.9,0.5,2,0.8,3,0.8H305.5L305.5,752.2z"/>
<path class="st1" d="M240.7,687.9l-7.6,13.2c-0.8,1.4-2.3,2.3-3.9,2.3h-15c-1.6,0-3.1-0.9-3.9-2.3l-7.6-13.1c-0.8-1.4-0.8-3.1,0-4.5
	l15.2-26.4c1.3-2.2,4-2.9,6.2-1.7c0.7,0.4,1.3,1,1.7,1.7l15,26.3C241.5,684.8,241.5,686.5,240.7,687.9z"/>
<path class="st0" d="M651.5,680h-60.8v-92.3c0-3.2-2.6-5.7-5.8-5.7c0,0,0,0,0,0h-12.5c-3.2,0-5.8,2.5-5.8,5.7c0,0,0,0,0,0v108.6
	c0,4,3.3,7.2,7.3,7.2h77.5c3.4,0,6.1-2.7,6.2-6.1c0,0,0,0,0,0v-11.4C657.7,682.7,654.9,680,651.5,680C651.5,680,651.5,680,651.5,680
	z M765.4,618.1v49.4c0,6.8-5.5,12.4-12.4,12.4h-32.5c-6.8,0-12.4-5.6-12.4-12.4v-49.4c0-6.9,5.5-12.4,12.4-12.4H753
	C759.9,605.7,765.4,611.3,765.4,618.1L765.4,618.1z M761.5,582.1h-49.4c-15.2,0-27.6,12.4-27.6,27.6V676c0,15.2,12.3,27.6,27.6,27.6
	c0,0,0,0,0,0h49.4c15.2,0,27.6-12.4,27.6-27.6v-66.3C789.1,594.5,776.7,582.1,761.5,582.1z M1157.9,618.1v49.4
	c0,6.9-5.6,12.4-12.4,12.4h-32.5c-6.8,0-12.4-5.6-12.4-12.4v-49.4c0-6.9,5.6-12.4,12.4-12.4h32.5
	C1152.3,605.7,1157.9,611.3,1157.9,618.1z M1153.9,582.1h-49.4c-15.2,0-27.6,12.4-27.6,27.6V676c0,15.2,12.3,27.6,27.6,27.6h49.4
	c15.2,0,27.6-12.4,27.6-27.6c0,0,0,0,0,0v-66.3C1181.5,594.5,1169.2,582.1,1153.9,582.1C1153.9,582.1,1153.9,582.1,1153.9,582.1z
	 M1046.9,582.1h-96.7c-1.8,0-3.3,1.5-3.3,3.3v17.1c0,1.8,1.4,3.2,3.2,3.2h36.1v94.3c0,1.8,1.5,3.3,3.3,3.3h17.3
	c1.8,0,3.3-1.5,3.3-3.3v-94.2h36.6c1.8,0,3.3-1.5,3.3-3.3v-17C1050.1,583.5,1048.7,582.1,1046.9,582.1z M505.1,624.5
	c-2.3,3.2-6,5.1-9.9,5.1h-31c-0.2,0-0.3-0.1-0.3-0.3v-23c0-0.1,0.1-0.3,0.3-0.3h30.4c5.6,0,10.5,3.4,12.1,8.2
	C507.9,617.6,507.3,621.5,505.1,624.5L505.1,624.5z M463.9,650.6c0-0.1,0.1-0.3,0.3-0.3H500c4.4,0,8.5,1.8,11.6,4.9
	c4.8,4.9,5.7,12.2,1.2,18.4c-3,4.1-8,6.4-13.2,6.4h-35.6c-0.1,0-0.3-0.1-0.3-0.3L463.9,650.6L463.9,650.6z M523.8,636.2
	c1.9-2.2,3.6-4.8,5.1-8.1c1.6-3.8,2.5-8,2.5-12.2c0-18.9-15.9-33.8-36.3-33.8h-47.7c-4.2,0-7.7,3.4-7.7,7.6V696
	c0,4.2,3.4,7.6,7.7,7.6c0,0,0,0,0,0h53.4c21.9,0,39.1-16.3,39.1-37.1C539.9,654.3,533.8,642.9,523.8,636.2L523.8,636.2z
	 M896.6,659.4v7.8c0,6.8-5.5,12.4-12.4,12.4h-32.4c-6.9,0-12.4-5.6-12.4-12.4v-49.1c0-6.9,5.6-12.4,12.4-12.4h32.4
	c6.8,0,12.4,5.6,12.4,12.4v7.8c0,1.8,1.5,3.3,3.3,3.3h17c1.8,0,3.3-1.5,3.3-3.3V607c0-13.8-11.1-24.9-24.9-24.9h-54.6
	c-13.8,0-24.9,11.2-24.9,24.9v71.2c0,13.8,11.1,24.9,24.9,24.9h54.6c13.8,0,24.9-11.2,24.9-24.9v-18.9c0-1.8-1.5-3.3-3.3-3.3
	c0,0,0,0,0,0h-17C898.1,656,896.6,657.5,896.6,659.4C896.6,659.3,896.6,659.3,896.6,659.4L896.6,659.4z"/>
<path class="st1" d="M1287.4,624.5c-2.3,3.2-6,5.1-9.9,5.1h-31c-0.2,0-0.3-0.1-0.3-0.3v-23c0-0.1,0.1-0.3,0.3-0.3h30.4
	c5.6,0,10.5,3.4,12.1,8.2C1290.2,617.6,1289.6,621.5,1287.4,624.5L1287.4,624.5z M1246.2,650.6c0-0.1,0.1-0.3,0.3-0.3h35.9
	c4.3,0,8.6,1.8,11.6,4.9c4.8,4.9,5.7,12.2,1.2,18.4c-3,4.1-8,6.4-13.2,6.4h-35.6c-0.1,0-0.3-0.1-0.3-0.3L1246.2,650.6L1246.2,650.6z
	 M1306.1,636.2c2.1-2.5,3.8-5.2,5.1-8.1c1.6-3.9,2.5-8,2.5-12.2c0-18.9-15.9-33.8-36.3-33.8h-47.7c-4.2,0-7.7,3.4-7.7,7.6V696
	c0,4.2,3.4,7.6,7.7,7.6l0,0h53.4c21.9,0,39.1-16.3,39.1-37.1C1322.2,654.3,1316,642.9,1306.1,636.2L1306.1,636.2z M1390.7,645.5
	l13.8-38.7c0.5-1.4,2.1-2.1,3.5-1.6c0.8,0.3,1.4,0.9,1.6,1.6l13.8,38.7c0.4,1.2-0.2,2.6-1.4,3c-0.3,0.1-0.5,0.1-0.8,0.1h-28.2
	c-1.3,0-2.3-1-2.3-2.3C1390.5,646,1390.6,645.7,1390.7,645.5z M1468.8,699.8l-41.2-109.4c-1.8-5-6.4-8.3-11.5-8.3h-18.4
	c-5.1,0-9.6,3.3-11.5,8.3l-41.2,109.4c-0.5,1.6,0.5,3.2,2,3.7c0.2,0.1,0.5,0.1,0.7,0.1h16.1c3.9,0,7.3-2.7,8.4-6.5l7.5-21.1
	c0.8-2.2,2.9-3.7,5.3-3.7h43.7c2.4,0,4.5,1.5,5.3,3.7l7.5,21.1c1.1,3.9,4.5,6.5,8.4,6.5h16c1.6,0,2.9-1.4,2.9-3
	C1468.9,700.3,1468.8,700,1468.8,699.8L1468.8,699.8z M1536.8,653.1v44.1c0,3.4-2.7,6.1-6.1,6.1l-11.5,0c-3.4,0-6.1-2.7-6.1-6.1
	c0,0,0,0,0,0v-44.1c0-0.7-0.2-1.4-0.6-1.9l-44.5-63.8c-1.1-1.5-0.7-3.6,0.8-4.7c0.6-0.4,1.2-0.6,1.9-0.6h16.5c4.1,0,7.9,2.2,9.9,5.7
	l26.5,36.9c0.6,0.9,1.9,1.1,2.8,0.5c0.2-0.1,0.3-0.3,0.5-0.5l25.5-36.9c2.1-3.5,5.8-5.7,9.9-5.7h15.8c2.7,0,4.3,3,2.8,5.2
	l-43.8,63.9C1537,651.7,1536.8,652.4,1536.8,653.1L1536.8,653.1z"/>
</svg>
